<?xml version="1.0" standalone="no"?>
 <!DOCTYPE svg PUBLIC "-//W3C//DTD SVG 1.1//EN" 
 "http://www.w3.org/Graphics/SVG/1.1/DTD/svg11.dtd"> 
<svg
  xmlns:svg="http://www.w3.org/2000/svg"
  xmlns="http://www.w3.org/2000/svg"
  xmlns:xlink="http://www.w3.org/1999/xlink"
  version="1.1"
  width="21.958300cm" height="9.964420cm" viewBox="0 0 219583000 99644200">
<title>SVG Picture created as AlphaStag-Edge_Cuts.svg date 2023/01/14 11:55:38 </title>
  <desc>Picture generated by PCBNEW </desc>
<g style="fill:#000000; fill-opacity:1.000000;stroke:#000000; stroke-opacity:1.000000;
stroke-linecap:round; stroke-linejoin:round;"
 transform="translate(0 0) scale(1 1)">
</g>
<g style="fill:#000000; fill-opacity:0.0; 
stroke:#000000; stroke-width:0.000000; stroke-opacity:1; 
stroke-linecap:round; stroke-linejoin:round;">
</g>
<g style="fill:#000000; fill-opacity:0.0; 
stroke:#000000; stroke-width:100000.000000; stroke-opacity:1; 
stroke-linecap:round; stroke-linejoin:round;">
<path d="M5990642.266568 57154881.970385 A905524.000000 905524.000000 0.0 0 0 6790641.029615 57954880.733432" />
<path d="M177734207.300352 64138003.707419 A1754827.000000 1754827.000000 0.0 0 0 176186722.315450 66099507.960614" />
<path d="M133350329 99595194
L178544113 91639254
" />
<path d="M178544113.029911 91639254.269200 A1754793.000000 1754793.000000 0.0 0 0 180091600.671590 89677774.041006" />
<path d="M177734210 64138028
L212850329 58095193
" />
<path d="M6790641 57954881
L41728971 64110620
" />
<path d="M119050329 16495194
L100450329 16395194
" />
<path d="M6265755 1716553
L130403 36976977
" />
<path d="M213307496 1679075
L219489080 37072823
" />
<path d="M41048971 91579768
L86150329 99595194
" />
<path d="M111578 37617565
L5990642 57154882
" />
<path d="M100450329 16395194
L8130341 53591
" />
<path d="M39386012.606871 89715182.230704 A1754795.000000 1754795.000000 0.0 0 0 41048970.994383 91579768.111548" />
<path d="M219470232.488261 37713399.742346 A761521.000000 761521.000000 0.0 0 0 219489080.138924 37072822.940463" />
<path d="M213307519.304780 1679072.410129 A1754827.000000 1754827.000000 0.0 0 0 211346016.024036 131587.192510" />
<path d="M211346016 131587
L119050329 16495194
" />
<path d="M43391933 65975206
L39386009 89715182
" />
<path d="M86150329 99595194
L133350329 99595194
" />
<path d="M43391944.329976 65975206.724698 A1754794.000000 1754794.000000 0.0 0 0 41728970.995793 64110620.083552" />
<path d="M8130341.788400 53578.674099 A1754794.000000 1754794.000000 0.0 0 0 6265755.033330 1716553.001678" />
<path d="M213650328 57295194
L219470255 37713411
" />
<path d="M130402.578586 36976976.789290 A761569.000000 761569.000000 0.0 0 0 111578.397266 37617564.829740" />
<path d="M212850329.053015 58095193.477134 A905538.000000 905538.000000 0.0 0 0 213650328.477134 57295194.053015" />
<path d="M180091601 89677774
L176186722 66099508
" />
<g >
</g>
<g >
</g>
<g >
</g>
<g >
</g>
<g >
</g>
<g >
</g>
<g >
</g>
<g >
</g>
<g >
</g>
<g >
</g>
<g >
</g>
<g >
</g>
<g >
</g>
<g >
</g>
<g >
</g>
<g >
</g>
<g >
</g>
<g >
</g>
<g >
</g>
<g >
</g>
<g >
</g>
<g >
</g>
<g >
</g>
<g >
</g>
<g >
</g>
<g >
</g>
<g >
</g>
<g >
</g>
<g >
</g>
<g >
</g>
<g >
</g>
<g >
</g>
<g >
</g>
<g >
</g>
<g >
</g>
<g >
</g>
<g >
</g>
<g >
</g>
<g >
</g>
<g >
</g>
<g >
</g>
<g >
</g>
<g >
</g>
<g >
</g>
<g >
</g>
<g >
</g>
<g >
</g>
<g >
</g>
<g >
</g>
<g >
</g>
<g >
</g>
<g >
</g>
<g >
</g>
<g >
</g>
<g >
</g>
<g >
</g>
<g >
</g>
<g >
</g>
<g >
</g>
<g >
</g>
<g >
</g>
<g >
</g>
<g >
</g>
<g >
</g>
<g >
</g>
<g >
</g>
<g >
</g>
<g >
</g>
<g >
</g>
<g >
</g>
<g >
</g>
<g >
</g>
<g >
</g>
<g >
</g>
<g >
</g>
<g >
</g>
<g >
</g>
<g >
</g>
<g >
</g>
<g >
</g>
<g >
</g>
<g >
</g>
<g >
</g>
<g >
</g>
<g >
</g>
<g >
</g>
</g> 
</svg>
