%TF.GenerationSoftware,KiCad,Pcbnew,(6.0.4-0)*%
%TF.CreationDate,2023-01-13T14:19:42-08:00*%
%TF.ProjectId,AlphaStag,416c7068-6153-4746-9167-2e6b69636164,v1.0.0*%
%TF.SameCoordinates,Original*%
%TF.FileFunction,Paste,Bot*%
%TF.FilePolarity,Positive*%
%FSLAX46Y46*%
G04 Gerber Fmt 4.6, Leading zero omitted, Abs format (unit mm)*
G04 Created by KiCad (PCBNEW (6.0.4-0)) date 2023-01-13 14:19:42*
%MOMM*%
%LPD*%
G01*
G04 APERTURE LIST*
G04 Aperture macros list*
%AMRoundRect*
0 Rectangle with rounded corners*
0 $1 Rounding radius*
0 $2 $3 $4 $5 $6 $7 $8 $9 X,Y pos of 4 corners*
0 Add a 4 corners polygon primitive as box body*
4,1,4,$2,$3,$4,$5,$6,$7,$8,$9,$2,$3,0*
0 Add four circle primitives for the rounded corners*
1,1,$1+$1,$2,$3*
1,1,$1+$1,$4,$5*
1,1,$1+$1,$6,$7*
1,1,$1+$1,$8,$9*
0 Add four rect primitives between the rounded corners*
20,1,$1+$1,$2,$3,$4,$5,0*
20,1,$1+$1,$4,$5,$6,$7,0*
20,1,$1+$1,$6,$7,$8,$9,0*
20,1,$1+$1,$8,$9,$2,$3,0*%
%AMRotRect*
0 Rectangle, with rotation*
0 The origin of the aperture is its center*
0 $1 length*
0 $2 width*
0 $3 Rotation angle, in degrees counterclockwise*
0 Add horizontal line*
21,1,$1,$2,0,0,$3*%
G04 Aperture macros list end*
%ADD10R,1.800000X1.100000*%
%ADD11RotRect,0.900000X1.200000X100.000000*%
%ADD12RotRect,0.900000X1.200000X80.000000*%
%ADD13R,1.200000X1.800000*%
%ADD14R,0.600000X1.550000*%
%ADD15RoundRect,0.250000X-0.250000X-0.475000X0.250000X-0.475000X0.250000X0.475000X-0.250000X0.475000X0*%
%ADD16R,1.200000X1.400000*%
%ADD17RoundRect,0.250000X-0.475000X0.250000X-0.475000X-0.250000X0.475000X-0.250000X0.475000X0.250000X0*%
%ADD18R,0.550000X1.500000*%
%ADD19R,1.500000X0.550000*%
%ADD20RoundRect,0.250000X-0.450000X0.262500X-0.450000X-0.262500X0.450000X-0.262500X0.450000X0.262500X0*%
%ADD21RoundRect,0.250000X0.475000X-0.250000X0.475000X0.250000X-0.475000X0.250000X-0.475000X-0.250000X0*%
%ADD22RoundRect,0.250000X-0.262500X-0.450000X0.262500X-0.450000X0.262500X0.450000X-0.262500X0.450000X0*%
%ADD23RoundRect,0.250000X0.250000X0.475000X-0.250000X0.475000X-0.250000X-0.475000X0.250000X-0.475000X0*%
G04 APERTURE END LIST*
D10*
%TO.C,SW1*%
X139900000Y-64950000D03*
X133700000Y-64950000D03*
X133700000Y-68650000D03*
X139900000Y-68650000D03*
%TD*%
D11*
%TO.C,D29*%
X209532505Y-70280778D03*
X208959467Y-67030912D03*
%TD*%
D12*
%TO.C,D15*%
X111425447Y-62495670D03*
X111998485Y-59245804D03*
%TD*%
D11*
%TO.C,D9*%
X212296803Y-31105603D03*
X211723765Y-27855737D03*
%TD*%
%TO.C,D6*%
X156152873Y-41811288D03*
X155579835Y-38561422D03*
%TD*%
D12*
%TO.C,D24*%
X98737155Y-79602259D03*
X99310193Y-76352393D03*
%TD*%
D11*
%TO.C,D27*%
X172011329Y-76896773D03*
X171438291Y-73646907D03*
%TD*%
D12*
%TO.C,D32*%
X103644361Y-108110760D03*
X104217399Y-104860894D03*
%TD*%
D13*
%TO.C,J1*%
X123001748Y-57637500D03*
X128601748Y-57637500D03*
D14*
X124301748Y-61512500D03*
X125301748Y-61512500D03*
X126301748Y-61512500D03*
X127301748Y-61512500D03*
%TD*%
D15*
%TO.C,C6*%
X131956250Y-105775000D03*
X133856250Y-105775000D03*
%TD*%
D12*
%TO.C,D4*%
X95972857Y-40427085D03*
X96545895Y-37177219D03*
%TD*%
D16*
%TO.C,Y1*%
X140450000Y-99200000D03*
X140450000Y-97000000D03*
X142150000Y-97000000D03*
X142150000Y-99200000D03*
%TD*%
D11*
%TO.C,D19*%
X215604801Y-49866191D03*
X215031763Y-46616325D03*
%TD*%
D17*
%TO.C,C2*%
X138100000Y-95950000D03*
X138100000Y-97850000D03*
%TD*%
D11*
%TO.C,D10*%
X231057391Y-27797605D03*
X230484353Y-24547739D03*
%TD*%
D12*
%TO.C,D5*%
X114733445Y-43735083D03*
X115306483Y-40485217D03*
%TD*%
D18*
%TO.C,U2*%
X123900000Y-91600000D03*
X124700000Y-91600000D03*
X125500000Y-91600000D03*
X126300000Y-91600000D03*
X127100000Y-91600000D03*
X127900000Y-91600000D03*
X128700000Y-91600000D03*
X129500000Y-91600000D03*
X130300000Y-91600000D03*
X131100000Y-91600000D03*
X131900000Y-91600000D03*
D19*
X133600000Y-93300000D03*
X133600000Y-94100000D03*
X133600000Y-94900000D03*
X133600000Y-95700000D03*
X133600000Y-96500000D03*
X133600000Y-97300000D03*
X133600000Y-98100000D03*
X133600000Y-98900000D03*
X133600000Y-99700000D03*
X133600000Y-100500000D03*
X133600000Y-101300000D03*
D18*
X131900000Y-103000000D03*
X131100000Y-103000000D03*
X130300000Y-103000000D03*
X129500000Y-103000000D03*
X128700000Y-103000000D03*
X127900000Y-103000000D03*
X127100000Y-103000000D03*
X126300000Y-103000000D03*
X125500000Y-103000000D03*
X124700000Y-103000000D03*
X123900000Y-103000000D03*
D19*
X122200000Y-101300000D03*
X122200000Y-100500000D03*
X122200000Y-99700000D03*
X122200000Y-98900000D03*
X122200000Y-98100000D03*
X122200000Y-97300000D03*
X122200000Y-96500000D03*
X122200000Y-95700000D03*
X122200000Y-94900000D03*
X122200000Y-94100000D03*
X122200000Y-93300000D03*
%TD*%
D12*
%TO.C,D1*%
X39691094Y-30503092D03*
X40264132Y-27253226D03*
%TD*%
D20*
%TO.C,R3*%
X124601748Y-64875000D03*
X124601748Y-66700000D03*
%TD*%
D11*
%TO.C,D33*%
X166998136Y-105354096D03*
X166425098Y-102104230D03*
%TD*%
D20*
%TO.C,R4*%
X123306250Y-105362500D03*
X123306250Y-107187500D03*
%TD*%
D12*
%TO.C,D14*%
X92664859Y-59187673D03*
X93237897Y-55937807D03*
%TD*%
D11*
%TO.C,D17*%
X178083625Y-56482187D03*
X177510587Y-53232321D03*
%TD*%
D12*
%TO.C,D22*%
X61215980Y-72986264D03*
X61789018Y-69736398D03*
%TD*%
D11*
%TO.C,D30*%
X228293092Y-66972780D03*
X227720054Y-63722914D03*
%TD*%
%TO.C,D8*%
X193536215Y-34413601D03*
X192963177Y-31163735D03*
%TD*%
%TO.C,D26*%
X153250742Y-80204771D03*
X152677704Y-76954905D03*
%TD*%
D21*
%TO.C,C1*%
X138100000Y-101450000D03*
X138100000Y-99550000D03*
%TD*%
D15*
%TO.C,C4*%
X127856250Y-84375000D03*
X129756250Y-84375000D03*
%TD*%
D11*
%TO.C,D18*%
X196844213Y-53174189D03*
X196271175Y-49924323D03*
%TD*%
D12*
%TO.C,D23*%
X79976568Y-76294261D03*
X80549606Y-73044395D03*
%TD*%
%TO.C,D2*%
X58451682Y-33811089D03*
X59024720Y-30561223D03*
%TD*%
D17*
%TO.C,C5*%
X119500000Y-92150000D03*
X119500000Y-94050000D03*
%TD*%
D11*
%TO.C,D20*%
X234365388Y-46558193D03*
X233792350Y-43308327D03*
%TD*%
%TO.C,D16*%
X159323038Y-59790184D03*
X158750000Y-56540318D03*
%TD*%
D22*
%TO.C,R1*%
X138193750Y-89875000D03*
X140018750Y-89875000D03*
%TD*%
D20*
%TO.C,R2*%
X127000000Y-64887500D03*
X127000000Y-66712500D03*
%TD*%
D11*
%TO.C,D7*%
X174775628Y-37721599D03*
X174202590Y-34471733D03*
%TD*%
D12*
%TO.C,D3*%
X77212269Y-37119087D03*
X77785307Y-33869221D03*
%TD*%
D11*
%TO.C,D34*%
X195139018Y-100392099D03*
X194565980Y-97142233D03*
%TD*%
D12*
%TO.C,D31*%
X75503480Y-103148763D03*
X76076518Y-99898897D03*
%TD*%
%TO.C,D25*%
X117635576Y-82128566D03*
X118208614Y-78878700D03*
%TD*%
%TO.C,D11*%
X36383096Y-49263679D03*
X36956134Y-46013813D03*
%TD*%
%TO.C,D21*%
X42455392Y-69678266D03*
X43028430Y-66428400D03*
%TD*%
D23*
%TO.C,C8*%
X124550000Y-87700000D03*
X122650000Y-87700000D03*
%TD*%
D12*
%TO.C,D13*%
X73904272Y-55879675D03*
X74477310Y-52629809D03*
%TD*%
D21*
%TO.C,C7*%
X119506250Y-102925000D03*
X119506250Y-101025000D03*
%TD*%
D11*
%TO.C,D28*%
X190771917Y-73588775D03*
X190198879Y-70338909D03*
%TD*%
D12*
%TO.C,D12*%
X55143684Y-52571677D03*
X55716722Y-49321811D03*
%TD*%
M02*
