M48
; DRILL file {KiCad (6.0.4-0)} date Friday, January 13, 2023 at 02:19:29 PM
; FORMAT={-:-/ absolute / metric / decimal}
; #@! TF.CreationDate,2023-01-13T14:19:29-08:00
; #@! TF.GenerationSoftware,Kicad,Pcbnew,(6.0.4-0)
; #@! TF.FileFunction,MixedPlating,1,2
FMAT,2
METRIC
; #@! TA.AperFunction,Plated,PTH,ViaDrill
T1C0.400
; #@! TA.AperFunction,Plated,PTH,ComponentDrill
T2C1.470
; #@! TA.AperFunction,NonPlated,NPTH,ComponentDrill
T3C1.750
; #@! TA.AperFunction,NonPlated,NPTH,ComponentDrill
T4C3.988
%
G90
G05
T1
X84.7Y-89.7
X115.5Y-59.2
X119.5Y-89.7
X119.5Y-107.7
X119.9Y-83.9
X120.9Y-87.7
X123.3Y-108.8
X124.1Y-94.1
X124.2Y-100.5
X124.7Y-89.7
X124.7Y-111.0
X125.7Y-111.0
X126.699Y-111.0
X127.1Y-93.5
X127.699Y-111.0
X128.4Y-62.9
X128.698Y-111.0
X128.7Y-89.7
X129.698Y-111.0
X129.7Y-82.5
X130.697Y-111.0
X131.3Y-101.4
X131.697Y-111.0
X133.0Y-107.7
X133.7Y-62.9
X138.1Y-103.2
X140.2Y-84.1
X140.4Y-95.0
X141.9Y-59.2
X145.7Y-89.6
T2
X25.542Y-43.097
X28.85Y-24.337
X31.614Y-63.512
X32.236Y-41.699
X35.544Y-22.938
X38.309Y-62.113
X44.302Y-46.405
X47.61Y-27.645
X50.375Y-66.82
X50.997Y-45.007
X54.305Y-26.246
X57.069Y-65.421
X63.063Y-49.713
X64.662Y-96.982
X66.371Y-30.953
X69.135Y-70.128
X69.757Y-48.315
X71.357Y-95.584
X73.065Y-29.554
X75.83Y-68.729
X81.823Y-53.021
X85.131Y-34.261
X87.896Y-73.436
X88.518Y-51.623
X91.826Y-32.862
X92.803Y-101.944
X94.59Y-72.037
X99.498Y-100.546
X100.584Y-56.329
X103.892Y-37.569
X106.656Y-76.744
X107.279Y-54.931
X110.587Y-36.17
X113.351Y-75.345
X140.954Y-78.118
X143.718Y-38.943
X146.767Y-74.514
X147.026Y-57.704
X149.531Y-35.339
X152.839Y-54.1
X154.702Y-103.268
X159.715Y-74.81
X160.514Y-99.664
X162.479Y-35.635
X165.527Y-71.206
X165.787Y-54.396
X168.291Y-32.031
X171.599Y-50.792
X178.475Y-71.502
X181.24Y-32.327
X182.842Y-98.306
X184.288Y-67.898
X184.548Y-51.088
X187.052Y-28.723
X188.655Y-94.702
X190.36Y-47.484
X197.236Y-68.194
X200.0Y-29.019
X203.048Y-64.59
X203.308Y-47.78
X205.813Y-25.415
X209.121Y-44.176
X215.996Y-64.886
X218.761Y-25.711
X221.809Y-61.282
X222.069Y-44.472
X224.573Y-22.107
X227.881Y-40.868
T3
X23.85Y-45.378
X27.158Y-26.618
X29.922Y-65.793
X33.856Y-47.143
X37.164Y-28.382
X39.928Y-67.557
X42.61Y-48.686
X45.918Y-29.926
X48.683Y-69.101
X52.616Y-50.451
X55.924Y-31.69
X58.688Y-70.865
X61.371Y-51.994
X62.97Y-99.263
X64.679Y-33.234
X67.443Y-72.409
X71.377Y-53.759
X72.976Y-101.028
X74.685Y-34.998
X77.449Y-74.173
X80.132Y-55.302
X83.44Y-36.542
X86.204Y-75.717
X90.137Y-57.067
X91.111Y-104.225
X93.445Y-38.306
X96.21Y-77.481
X98.892Y-58.61
X101.117Y-105.99
X102.2Y-39.85
X104.965Y-79.025
X108.898Y-60.375
X112.206Y-41.614
X114.97Y-80.789
X140.144Y-80.84
X142.909Y-41.665
X146.217Y-60.426
X150.15Y-79.076
X152.914Y-39.901
X153.892Y-105.99
X156.222Y-58.661
X158.905Y-77.532
X161.669Y-38.357
X163.898Y-104.225
X164.977Y-57.118
X168.911Y-75.768
X171.675Y-36.593
X174.983Y-55.353
X177.666Y-74.224
X180.43Y-35.049
X182.033Y-101.028
X183.738Y-53.81
X187.671Y-72.46
X190.436Y-33.285
X192.038Y-99.263
X193.744Y-52.045
X196.426Y-70.916
X199.191Y-31.741
X202.499Y-50.502
X206.432Y-69.152
X209.196Y-29.977
X212.504Y-48.737
X215.187Y-67.608
X217.951Y-28.433
X221.259Y-47.194
X225.192Y-65.844
X227.957Y-26.669
X231.265Y-45.429
T4
X28.853Y-46.26
X32.161Y-27.5
X34.925Y-66.675
X47.613Y-49.568
X50.921Y-30.808
X53.686Y-69.983
X66.374Y-52.876
X67.973Y-100.145
X69.682Y-34.116
X72.446Y-73.291
X85.134Y-56.184
X88.442Y-37.424
X91.207Y-76.599
X96.114Y-105.107
X103.895Y-59.492
X107.203Y-40.732
X109.967Y-79.907
X145.147Y-79.958
X147.912Y-40.783
X151.22Y-59.544
X158.895Y-105.107
X163.908Y-76.65
X166.672Y-37.475
X169.98Y-56.236
X182.668Y-73.342
X185.433Y-34.167
X187.036Y-100.145
X188.741Y-52.928
X201.429Y-70.034
X204.193Y-30.859
X207.501Y-49.62
X220.19Y-66.726
X222.954Y-27.551
X226.262Y-46.312
T0
M30
