%TF.GenerationSoftware,KiCad,Pcbnew,(6.0.4-0)*%
%TF.CreationDate,2023-01-13T14:19:42-08:00*%
%TF.ProjectId,AlphaStag,416c7068-6153-4746-9167-2e6b69636164,v1.0.0*%
%TF.SameCoordinates,Original*%
%TF.FileFunction,Soldermask,Bot*%
%TF.FilePolarity,Negative*%
%FSLAX46Y46*%
G04 Gerber Fmt 4.6, Leading zero omitted, Abs format (unit mm)*
G04 Created by KiCad (PCBNEW (6.0.4-0)) date 2023-01-13 14:19:42*
%MOMM*%
%LPD*%
G01*
G04 APERTURE LIST*
G04 Aperture macros list*
%AMRoundRect*
0 Rectangle with rounded corners*
0 $1 Rounding radius*
0 $2 $3 $4 $5 $6 $7 $8 $9 X,Y pos of 4 corners*
0 Add a 4 corners polygon primitive as box body*
4,1,4,$2,$3,$4,$5,$6,$7,$8,$9,$2,$3,0*
0 Add four circle primitives for the rounded corners*
1,1,$1+$1,$2,$3*
1,1,$1+$1,$4,$5*
1,1,$1+$1,$6,$7*
1,1,$1+$1,$8,$9*
0 Add four rect primitives between the rounded corners*
20,1,$1+$1,$2,$3,$4,$5,0*
20,1,$1+$1,$4,$5,$6,$7,0*
20,1,$1+$1,$6,$7,$8,$9,0*
20,1,$1+$1,$8,$9,$2,$3,0*%
G04 Aperture macros list end*
%ADD10C,4.087800*%
%ADD11C,1.850000*%
%ADD12C,2.350000*%
%ADD13RoundRect,0.050000X0.900000X0.550000X-0.900000X0.550000X-0.900000X-0.550000X0.900000X-0.550000X0*%
%ADD14RoundRect,0.050000X0.669026X-0.338975X0.512743X0.547352X-0.669026X0.338975X-0.512743X-0.547352X0*%
%ADD15RoundRect,0.050000X0.512743X-0.547352X0.669026X0.338975X-0.512743X0.547352X-0.669026X-0.338975X0*%
%ADD16RoundRect,0.050000X-0.600000X-0.900000X0.600000X-0.900000X0.600000X0.900000X-0.600000X0.900000X0*%
%ADD17RoundRect,0.050000X-0.300000X-0.775000X0.300000X-0.775000X0.300000X0.775000X-0.300000X0.775000X0*%
%ADD18RoundRect,0.300000X-0.250000X-0.475000X0.250000X-0.475000X0.250000X0.475000X-0.250000X0.475000X0*%
%ADD19RoundRect,0.050000X0.600000X-0.700000X0.600000X0.700000X-0.600000X0.700000X-0.600000X-0.700000X0*%
%ADD20RoundRect,0.300000X-0.475000X0.250000X-0.475000X-0.250000X0.475000X-0.250000X0.475000X0.250000X0*%
%ADD21RoundRect,0.050000X-0.275000X0.750000X-0.275000X-0.750000X0.275000X-0.750000X0.275000X0.750000X0*%
%ADD22RoundRect,0.050000X0.750000X0.275000X-0.750000X0.275000X-0.750000X-0.275000X0.750000X-0.275000X0*%
%ADD23RoundRect,0.300000X-0.450000X0.262500X-0.450000X-0.262500X0.450000X-0.262500X0.450000X0.262500X0*%
%ADD24RoundRect,0.300000X0.475000X-0.250000X0.475000X0.250000X-0.475000X0.250000X-0.475000X-0.250000X0*%
%ADD25RoundRect,0.300000X-0.262500X-0.450000X0.262500X-0.450000X0.262500X0.450000X-0.262500X0.450000X0*%
%ADD26RoundRect,0.300000X0.250000X0.475000X-0.250000X0.475000X-0.250000X-0.475000X0.250000X-0.475000X0*%
G04 APERTURE END LIST*
D10*
%TO.C,MX20*%
X226261958Y-46311593D03*
D11*
X231264781Y-45429460D03*
X221259135Y-47193726D03*
D12*
X222068774Y-44471781D03*
X227881237Y-40867703D03*
%TD*%
D11*
%TO.C,MX17*%
X164977372Y-57117719D03*
D10*
X169980195Y-56235586D03*
D11*
X174983018Y-55353453D03*
D12*
X165787011Y-54395774D03*
X171599474Y-50791696D03*
%TD*%
D11*
%TO.C,MX18*%
X183737960Y-53809721D03*
X193743606Y-52045455D03*
D10*
X188740783Y-52927588D03*
D12*
X184547599Y-51087776D03*
X190360062Y-47483698D03*
%TD*%
D11*
%TO.C,MX13*%
X61371056Y-51994276D03*
X71376702Y-53758542D03*
D10*
X66373879Y-52876409D03*
D12*
X63062828Y-49713398D03*
X69757423Y-48314652D03*
%TD*%
D10*
%TO.C,MX10*%
X222953960Y-27551005D03*
D11*
X227956783Y-26668872D03*
X217951137Y-28433138D03*
D12*
X218760776Y-25711193D03*
X224573239Y-22107115D03*
%TD*%
D10*
%TO.C,MX4*%
X88442465Y-37423819D03*
D11*
X93445288Y-38305952D03*
X83439642Y-36541686D03*
D12*
X85131414Y-34260808D03*
X91826009Y-32862062D03*
%TD*%
D11*
%TO.C,MX27*%
X158905076Y-77532306D03*
X168910722Y-75768040D03*
D10*
X163907899Y-76650173D03*
D12*
X159714715Y-74810361D03*
X165527178Y-71206283D03*
%TD*%
D10*
%TO.C,MX15*%
X103895054Y-59492405D03*
D11*
X98892231Y-58610272D03*
X108897877Y-60374538D03*
D12*
X100584003Y-56329394D03*
X107278598Y-54930648D03*
%TD*%
D10*
%TO.C,MX1*%
X32160701Y-27499826D03*
D11*
X37163524Y-28381959D03*
X27157878Y-26617693D03*
D12*
X28849650Y-24336815D03*
X35544245Y-22938069D03*
%TD*%
D11*
%TO.C,MX25*%
X114970174Y-80789125D03*
X104964528Y-79024859D03*
D10*
X109967351Y-79906992D03*
D12*
X106656300Y-76743981D03*
X113350895Y-75345235D03*
%TD*%
D10*
%TO.C,MX3*%
X69681877Y-34115822D03*
D11*
X74684700Y-34997955D03*
X64679054Y-33233689D03*
D12*
X66370826Y-30952811D03*
X73065421Y-29554065D03*
%TD*%
D11*
%TO.C,MX31*%
X72975910Y-101027631D03*
D10*
X67973087Y-100145498D03*
D11*
X62970264Y-99263365D03*
D12*
X64662036Y-96982487D03*
X71356631Y-95583741D03*
%TD*%
D11*
%TO.C,MX24*%
X96209586Y-77481127D03*
X86203940Y-75716861D03*
D10*
X91206763Y-76598994D03*
D12*
X87895712Y-73435983D03*
X94590307Y-72037237D03*
%TD*%
D11*
%TO.C,MX16*%
X156222430Y-58661451D03*
X146216784Y-60425717D03*
D10*
X151219607Y-59543584D03*
D12*
X147026423Y-57703772D03*
X152838886Y-54099694D03*
%TD*%
D11*
%TO.C,MX21*%
X39927823Y-67557133D03*
D10*
X34925000Y-66675000D03*
D11*
X29922177Y-65792867D03*
D12*
X31613949Y-63511989D03*
X38308544Y-62113243D03*
%TD*%
D10*
%TO.C,MX32*%
X96113969Y-105107494D03*
D11*
X101116792Y-105989627D03*
X91111146Y-104225361D03*
D12*
X92802918Y-101944483D03*
X99497513Y-100545737D03*
%TD*%
D11*
%TO.C,MX9*%
X209196195Y-29976870D03*
X199190549Y-31741136D03*
D10*
X204193372Y-30859003D03*
D12*
X200000188Y-29019191D03*
X205812651Y-25415113D03*
%TD*%
D10*
%TO.C,MX2*%
X50921289Y-30807824D03*
D11*
X45918466Y-29925691D03*
X55924112Y-31689957D03*
D12*
X47610238Y-27644813D03*
X54304833Y-26246067D03*
%TD*%
D10*
%TO.C,MX30*%
X220189662Y-66726179D03*
D11*
X215186839Y-67608312D03*
X225192485Y-65844046D03*
D12*
X215996478Y-64886367D03*
X221808941Y-61282289D03*
%TD*%
D11*
%TO.C,MX34*%
X192038410Y-99263365D03*
D10*
X187035587Y-100145498D03*
D11*
X182032764Y-101027631D03*
D12*
X182842403Y-98305686D03*
X188654866Y-94701608D03*
%TD*%
D11*
%TO.C,MX5*%
X102200229Y-39849684D03*
D10*
X107203052Y-40731817D03*
D11*
X112205875Y-41613950D03*
D12*
X103892001Y-37568806D03*
X110586596Y-36170060D03*
%TD*%
D11*
%TO.C,MX28*%
X177665663Y-74224308D03*
D10*
X182668486Y-73342175D03*
D11*
X187671309Y-72460042D03*
D12*
X178475302Y-71502363D03*
X184287765Y-67898285D03*
%TD*%
D11*
%TO.C,MX29*%
X196426251Y-70916310D03*
X206431897Y-69152044D03*
D10*
X201429074Y-70034177D03*
D12*
X197235890Y-68194365D03*
X203048353Y-64590287D03*
%TD*%
D11*
%TO.C,MX7*%
X161669374Y-38357131D03*
X171675020Y-36592865D03*
D10*
X166672197Y-37474998D03*
D12*
X162479013Y-35635186D03*
X168291476Y-32031108D03*
%TD*%
D11*
%TO.C,MX26*%
X150150134Y-79076037D03*
X140144488Y-80840303D03*
D10*
X145147311Y-79958170D03*
D12*
X140954127Y-78118358D03*
X146766590Y-74514280D03*
%TD*%
D11*
%TO.C,MX19*%
X212504193Y-48737457D03*
D10*
X207501370Y-49619590D03*
D11*
X202498547Y-50501723D03*
D12*
X203308186Y-47779778D03*
X209120649Y-44175700D03*
%TD*%
D11*
%TO.C,MX8*%
X180429962Y-35049133D03*
X190435608Y-33284867D03*
D10*
X185432785Y-34167000D03*
D12*
X181239601Y-32327188D03*
X187052064Y-28723110D03*
%TD*%
D11*
%TO.C,MX12*%
X42610468Y-48686279D03*
X52616114Y-50450545D03*
D10*
X47613291Y-49568412D03*
D12*
X44302240Y-46405401D03*
X50996835Y-45006655D03*
%TD*%
D11*
%TO.C,MX11*%
X33855527Y-47142547D03*
D10*
X28852704Y-46260414D03*
D11*
X23849881Y-45378281D03*
D12*
X25541653Y-43097403D03*
X32236248Y-41698657D03*
%TD*%
D11*
%TO.C,MX22*%
X48682764Y-69100865D03*
X58688410Y-70865131D03*
D10*
X53685587Y-69982998D03*
D12*
X50374536Y-66819987D03*
X57069131Y-65421241D03*
%TD*%
D10*
%TO.C,MX6*%
X147911609Y-40782996D03*
D11*
X152914432Y-39900863D03*
X142908786Y-41665129D03*
D12*
X143718425Y-38943184D03*
X149530888Y-35339106D03*
%TD*%
D11*
%TO.C,MX23*%
X77448998Y-74173129D03*
D10*
X72446175Y-73290996D03*
D11*
X67443352Y-72408863D03*
D12*
X69135124Y-70127985D03*
X75829719Y-68729239D03*
%TD*%
D11*
%TO.C,MX33*%
X153891883Y-105989628D03*
D10*
X158894706Y-105107495D03*
D11*
X163897529Y-104225362D03*
D12*
X154701522Y-103267683D03*
X160513985Y-99663605D03*
%TD*%
D11*
%TO.C,MX14*%
X80131644Y-55302274D03*
X90137290Y-57066540D03*
D10*
X85134467Y-56184407D03*
D12*
X81823416Y-53021396D03*
X88518011Y-51622650D03*
%TD*%
D13*
%TO.C,SW1*%
X139900000Y-64950000D03*
X133700000Y-64950000D03*
X133700000Y-68650000D03*
X139900000Y-68650000D03*
%TD*%
D14*
%TO.C,D29*%
X209532505Y-70280778D03*
X208959467Y-67030912D03*
%TD*%
D15*
%TO.C,D15*%
X111425447Y-62495670D03*
X111998485Y-59245804D03*
%TD*%
D14*
%TO.C,D9*%
X212296803Y-31105603D03*
X211723765Y-27855737D03*
%TD*%
%TO.C,D6*%
X156152873Y-41811288D03*
X155579835Y-38561422D03*
%TD*%
D15*
%TO.C,D24*%
X98737155Y-79602259D03*
X99310193Y-76352393D03*
%TD*%
D14*
%TO.C,D27*%
X172011329Y-76896773D03*
X171438291Y-73646907D03*
%TD*%
D15*
%TO.C,D32*%
X103644361Y-108110760D03*
X104217399Y-104860894D03*
%TD*%
D16*
%TO.C,J1*%
X123001748Y-57637500D03*
X128601748Y-57637500D03*
D17*
X124301748Y-61512500D03*
X125301748Y-61512500D03*
X126301748Y-61512500D03*
X127301748Y-61512500D03*
%TD*%
D18*
%TO.C,C6*%
X131956250Y-105775000D03*
X133856250Y-105775000D03*
%TD*%
D15*
%TO.C,D4*%
X95972857Y-40427085D03*
X96545895Y-37177219D03*
%TD*%
D19*
%TO.C,Y1*%
X140450000Y-99200000D03*
X140450000Y-97000000D03*
X142150000Y-97000000D03*
X142150000Y-99200000D03*
%TD*%
D14*
%TO.C,D19*%
X215604801Y-49866191D03*
X215031763Y-46616325D03*
%TD*%
D20*
%TO.C,C2*%
X138100000Y-95950000D03*
X138100000Y-97850000D03*
%TD*%
D14*
%TO.C,D10*%
X231057391Y-27797605D03*
X230484353Y-24547739D03*
%TD*%
D15*
%TO.C,D5*%
X114733445Y-43735083D03*
X115306483Y-40485217D03*
%TD*%
D21*
%TO.C,U2*%
X123900000Y-91600000D03*
X124700000Y-91600000D03*
X125500000Y-91600000D03*
X126300000Y-91600000D03*
X127100000Y-91600000D03*
X127900000Y-91600000D03*
X128700000Y-91600000D03*
X129500000Y-91600000D03*
X130300000Y-91600000D03*
X131100000Y-91600000D03*
X131900000Y-91600000D03*
D22*
X133600000Y-93300000D03*
X133600000Y-94100000D03*
X133600000Y-94900000D03*
X133600000Y-95700000D03*
X133600000Y-96500000D03*
X133600000Y-97300000D03*
X133600000Y-98100000D03*
X133600000Y-98900000D03*
X133600000Y-99700000D03*
X133600000Y-100500000D03*
X133600000Y-101300000D03*
D21*
X131900000Y-103000000D03*
X131100000Y-103000000D03*
X130300000Y-103000000D03*
X129500000Y-103000000D03*
X128700000Y-103000000D03*
X127900000Y-103000000D03*
X127100000Y-103000000D03*
X126300000Y-103000000D03*
X125500000Y-103000000D03*
X124700000Y-103000000D03*
X123900000Y-103000000D03*
D22*
X122200000Y-101300000D03*
X122200000Y-100500000D03*
X122200000Y-99700000D03*
X122200000Y-98900000D03*
X122200000Y-98100000D03*
X122200000Y-97300000D03*
X122200000Y-96500000D03*
X122200000Y-95700000D03*
X122200000Y-94900000D03*
X122200000Y-94100000D03*
X122200000Y-93300000D03*
%TD*%
D15*
%TO.C,D1*%
X39691094Y-30503092D03*
X40264132Y-27253226D03*
%TD*%
D23*
%TO.C,R3*%
X124601748Y-64875000D03*
X124601748Y-66700000D03*
%TD*%
D14*
%TO.C,D33*%
X166998136Y-105354096D03*
X166425098Y-102104230D03*
%TD*%
D23*
%TO.C,R4*%
X123306250Y-105362500D03*
X123306250Y-107187500D03*
%TD*%
D15*
%TO.C,D14*%
X92664859Y-59187673D03*
X93237897Y-55937807D03*
%TD*%
D14*
%TO.C,D17*%
X178083625Y-56482187D03*
X177510587Y-53232321D03*
%TD*%
D15*
%TO.C,D22*%
X61215980Y-72986264D03*
X61789018Y-69736398D03*
%TD*%
D14*
%TO.C,D30*%
X228293092Y-66972780D03*
X227720054Y-63722914D03*
%TD*%
%TO.C,D8*%
X193536215Y-34413601D03*
X192963177Y-31163735D03*
%TD*%
%TO.C,D26*%
X153250742Y-80204771D03*
X152677704Y-76954905D03*
%TD*%
D24*
%TO.C,C1*%
X138100000Y-101450000D03*
X138100000Y-99550000D03*
%TD*%
D18*
%TO.C,C4*%
X127856250Y-84375000D03*
X129756250Y-84375000D03*
%TD*%
D14*
%TO.C,D18*%
X196844213Y-53174189D03*
X196271175Y-49924323D03*
%TD*%
D15*
%TO.C,D23*%
X79976568Y-76294261D03*
X80549606Y-73044395D03*
%TD*%
%TO.C,D2*%
X58451682Y-33811089D03*
X59024720Y-30561223D03*
%TD*%
D20*
%TO.C,C5*%
X119500000Y-92150000D03*
X119500000Y-94050000D03*
%TD*%
D14*
%TO.C,D20*%
X234365388Y-46558193D03*
X233792350Y-43308327D03*
%TD*%
%TO.C,D16*%
X159323038Y-59790184D03*
X158750000Y-56540318D03*
%TD*%
D25*
%TO.C,R1*%
X138193750Y-89875000D03*
X140018750Y-89875000D03*
%TD*%
D23*
%TO.C,R2*%
X127000000Y-64887500D03*
X127000000Y-66712500D03*
%TD*%
D14*
%TO.C,D7*%
X174775628Y-37721599D03*
X174202590Y-34471733D03*
%TD*%
D15*
%TO.C,D3*%
X77212269Y-37119087D03*
X77785307Y-33869221D03*
%TD*%
D14*
%TO.C,D34*%
X195139018Y-100392099D03*
X194565980Y-97142233D03*
%TD*%
D15*
%TO.C,D31*%
X75503480Y-103148763D03*
X76076518Y-99898897D03*
%TD*%
%TO.C,D25*%
X117635576Y-82128566D03*
X118208614Y-78878700D03*
%TD*%
%TO.C,D11*%
X36383096Y-49263679D03*
X36956134Y-46013813D03*
%TD*%
%TO.C,D21*%
X42455392Y-69678266D03*
X43028430Y-66428400D03*
%TD*%
D26*
%TO.C,C8*%
X124550000Y-87700000D03*
X122650000Y-87700000D03*
%TD*%
D15*
%TO.C,D13*%
X73904272Y-55879675D03*
X74477310Y-52629809D03*
%TD*%
D24*
%TO.C,C7*%
X119506250Y-102925000D03*
X119506250Y-101025000D03*
%TD*%
D14*
%TO.C,D28*%
X190771917Y-73588775D03*
X190198879Y-70338909D03*
%TD*%
D15*
%TO.C,D12*%
X55143684Y-52571677D03*
X55716722Y-49321811D03*
%TD*%
M02*
