%TF.GenerationSoftware,KiCad,Pcbnew,(6.0.4-0)*%
%TF.CreationDate,2023-01-13T14:19:42-08:00*%
%TF.ProjectId,AlphaStag,416c7068-6153-4746-9167-2e6b69636164,v1.0.0*%
%TF.SameCoordinates,Original*%
%TF.FileFunction,Soldermask,Top*%
%TF.FilePolarity,Negative*%
%FSLAX46Y46*%
G04 Gerber Fmt 4.6, Leading zero omitted, Abs format (unit mm)*
G04 Created by KiCad (PCBNEW (6.0.4-0)) date 2023-01-13 14:19:42*
%MOMM*%
%LPD*%
G01*
G04 APERTURE LIST*
%ADD10C,4.087800*%
%ADD11C,1.850000*%
G04 APERTURE END LIST*
D10*
%TO.C,MX20*%
X226261958Y-46311593D03*
D11*
X231264781Y-45429460D03*
X221259135Y-47193726D03*
%TD*%
%TO.C,MX17*%
X164977372Y-57117719D03*
D10*
X169980195Y-56235586D03*
D11*
X174983018Y-55353453D03*
%TD*%
%TO.C,MX18*%
X183737960Y-53809721D03*
X193743606Y-52045455D03*
D10*
X188740783Y-52927588D03*
%TD*%
D11*
%TO.C,MX13*%
X61371056Y-51994276D03*
X71376702Y-53758542D03*
D10*
X66373879Y-52876409D03*
%TD*%
%TO.C,MX10*%
X222953960Y-27551005D03*
D11*
X227956783Y-26668872D03*
X217951137Y-28433138D03*
%TD*%
D10*
%TO.C,MX4*%
X88442465Y-37423819D03*
D11*
X93445288Y-38305952D03*
X83439642Y-36541686D03*
%TD*%
%TO.C,MX27*%
X158905076Y-77532306D03*
X168910722Y-75768040D03*
D10*
X163907899Y-76650173D03*
%TD*%
%TO.C,MX15*%
X103895054Y-59492405D03*
D11*
X98892231Y-58610272D03*
X108897877Y-60374538D03*
%TD*%
D10*
%TO.C,MX1*%
X32160701Y-27499826D03*
D11*
X37163524Y-28381959D03*
X27157878Y-26617693D03*
%TD*%
%TO.C,MX25*%
X114970174Y-80789125D03*
X104964528Y-79024859D03*
D10*
X109967351Y-79906992D03*
%TD*%
%TO.C,MX3*%
X69681877Y-34115822D03*
D11*
X74684700Y-34997955D03*
X64679054Y-33233689D03*
%TD*%
%TO.C,MX31*%
X72975910Y-101027631D03*
D10*
X67973087Y-100145498D03*
D11*
X62970264Y-99263365D03*
%TD*%
%TO.C,MX24*%
X96209586Y-77481127D03*
X86203940Y-75716861D03*
D10*
X91206763Y-76598994D03*
%TD*%
D11*
%TO.C,MX16*%
X156222430Y-58661451D03*
X146216784Y-60425717D03*
D10*
X151219607Y-59543584D03*
%TD*%
D11*
%TO.C,MX21*%
X39927823Y-67557133D03*
D10*
X34925000Y-66675000D03*
D11*
X29922177Y-65792867D03*
%TD*%
D10*
%TO.C,MX32*%
X96113969Y-105107494D03*
D11*
X101116792Y-105989627D03*
X91111146Y-104225361D03*
%TD*%
%TO.C,MX9*%
X209196195Y-29976870D03*
X199190549Y-31741136D03*
D10*
X204193372Y-30859003D03*
%TD*%
%TO.C,MX2*%
X50921289Y-30807824D03*
D11*
X45918466Y-29925691D03*
X55924112Y-31689957D03*
%TD*%
D10*
%TO.C,MX30*%
X220189662Y-66726179D03*
D11*
X215186839Y-67608312D03*
X225192485Y-65844046D03*
%TD*%
%TO.C,MX34*%
X192038410Y-99263365D03*
D10*
X187035587Y-100145498D03*
D11*
X182032764Y-101027631D03*
%TD*%
%TO.C,MX5*%
X102200229Y-39849684D03*
D10*
X107203052Y-40731817D03*
D11*
X112205875Y-41613950D03*
%TD*%
%TO.C,MX28*%
X177665663Y-74224308D03*
D10*
X182668486Y-73342175D03*
D11*
X187671309Y-72460042D03*
%TD*%
%TO.C,MX29*%
X196426251Y-70916310D03*
X206431897Y-69152044D03*
D10*
X201429074Y-70034177D03*
%TD*%
D11*
%TO.C,MX7*%
X161669374Y-38357131D03*
X171675020Y-36592865D03*
D10*
X166672197Y-37474998D03*
%TD*%
D11*
%TO.C,MX26*%
X150150134Y-79076037D03*
X140144488Y-80840303D03*
D10*
X145147311Y-79958170D03*
%TD*%
D11*
%TO.C,MX19*%
X212504193Y-48737457D03*
D10*
X207501370Y-49619590D03*
D11*
X202498547Y-50501723D03*
%TD*%
%TO.C,MX8*%
X180429962Y-35049133D03*
X190435608Y-33284867D03*
D10*
X185432785Y-34167000D03*
%TD*%
D11*
%TO.C,MX12*%
X42610468Y-48686279D03*
X52616114Y-50450545D03*
D10*
X47613291Y-49568412D03*
%TD*%
D11*
%TO.C,MX11*%
X33855527Y-47142547D03*
D10*
X28852704Y-46260414D03*
D11*
X23849881Y-45378281D03*
%TD*%
%TO.C,MX22*%
X48682764Y-69100865D03*
X58688410Y-70865131D03*
D10*
X53685587Y-69982998D03*
%TD*%
%TO.C,MX6*%
X147911609Y-40782996D03*
D11*
X152914432Y-39900863D03*
X142908786Y-41665129D03*
%TD*%
%TO.C,MX23*%
X77448998Y-74173129D03*
D10*
X72446175Y-73290996D03*
D11*
X67443352Y-72408863D03*
%TD*%
%TO.C,MX33*%
X153891883Y-105989628D03*
D10*
X158894706Y-105107495D03*
D11*
X163897529Y-104225362D03*
%TD*%
%TO.C,MX14*%
X80131644Y-55302274D03*
X90137290Y-57066540D03*
D10*
X85134467Y-56184407D03*
%TD*%
M02*
